<?xml version="1.0" encoding="utf-8"?>
<!-- Generator: Adobe Illustrator 22.0.1, SVG Export Plug-In . SVG Version: 6.00 Build 0)  -->
<svg version="1.1" id="Layer_1" xmlns="http://www.w3.org/2000/svg" xmlns:xlink="http://www.w3.org/1999/xlink" x="0px" y="0px"
	 viewBox="0 0 130 85" style="enable-background:new 0 0 130 85;" xml:space="preserve">
<style type="text/css">
	.st0{fill:#E2E2E2;}
	.st1{fill:#FFFFFF;}
</style>
<path class="st0" d="M34.5,30.8H21.7v-4.5c0-2.8-0.1-4.6-0.4-5.3c-0.2-0.7-0.8-1.1-1.7-1.1c-0.8,0-1.3,0.3-1.6,0.9
	c-0.3,0.6-0.4,2.2-0.4,4.7v23.7c0,2.2,0.1,3.7,0.4,4.4s0.9,1.1,1.7,1.1c0.9,0,1.6-0.4,1.9-1.2s0.5-2.3,0.5-4.6V43h-2.6v-7.5h15V62
	h-8.1l-1.2-3.5c-0.9,1.5-2,2.7-3.3,3.4C20.6,62.7,19,63,17.2,63c-2.2,0-4.2-0.5-6.1-1.6c-1.9-1-3.3-2.3-4.3-3.9
	c-1-1.5-1.6-3.2-1.8-4.9C4.8,51,4.7,48.4,4.7,45V30.4c0-4.7,0.3-8.2,0.8-10.3s2-4.1,4.4-5.9s5.5-2.7,9.4-2.7c3.8,0,6.9,0.8,9.4,2.3
	s4.1,3.4,4.9,5.5c0.7,2.1,1.1,5.2,1.1,9.3v2.2H34.5z"/>
<rect x="45.2" y="11.3" transform="matrix(0.7071 -0.7071 0.7071 0.7071 -5.3676 59.4067)" class="st0" width="47.7" height="49.8"/>
<g>
	<path class="st0" d="M16,79c-0.8,0.3-2.3,0.7-4.2,0.7c-2,0-3.7-0.5-5-1.8c-1.2-1.1-1.9-2.9-1.9-5c0-4,2.8-7,7.3-7
		c1.6,0,2.8,0.3,3.4,0.6L15.2,68c-0.7-0.3-1.6-0.6-3-0.6c-3.3,0-5.4,2-5.4,5.4s2,5.4,5.2,5.4c1.1,0,1.9-0.2,2.3-0.4v-4h-2.7v-1.4H16
		V79z"/>
	<path class="st0" d="M25.6,77.2c0,0.8,0,1.7,0.1,2.3h-1.6L24,78.3h-0.1c-0.5,0.8-1.6,1.4-3,1.4c-2,0-3-1.4-3-2.8
		c0-2.3,2.1-3.6,5.8-3.6v-0.2c0-0.8-0.2-2.2-2.2-2.2c-0.9,0-1.9,0.3-2.5,0.7l-0.4-1.2c0.8-0.5,2-0.8,3.2-0.8c3,0,3.7,2,3.7,3.9
		L25.6,77.2L25.6,77.2z M23.9,74.6c-1.9,0-4.1,0.3-4.1,2.2c0,1.2,0.8,1.7,1.6,1.7c1.3,0,2.1-0.8,2.4-1.6c0.1-0.2,0.1-0.4,0.1-0.6
		V74.6z"/>
	<path class="st0" d="M36.8,65.4v11.7c0,0.9,0,1.8,0.1,2.5h-1.6l-0.1-1.7h-0.1c-0.5,1.1-1.7,1.9-3.3,1.9c-2.3,0-4.2-2-4.2-4.9
		c0-3.2,2-5.2,4.3-5.2c1.5,0,2.5,0.7,2.9,1.5l0,0v-5.8H36.8z M35,73.8c0-0.2,0-0.5-0.1-0.7c-0.3-1.1-1.2-2-2.5-2
		c-1.8,0-2.9,1.6-2.9,3.7c0,2,1,3.6,2.9,3.6c1.2,0,2.3-0.8,2.6-2.1c0-0.3,0-0.5,0-0.8V73.8z"/>
	<path class="st0" d="M48,78.1c0,2.2-0.5,3.6-1.4,4.4c-1,0.9-2.3,1.2-3.5,1.2s-2.4-0.3-3.2-0.8l0.4-1.4c0.6,0.4,1.6,0.8,2.8,0.8
		c1.8,0,3.1-0.9,3.1-3.4v-1.1l0,0c-0.5,0.9-1.6,1.6-3.1,1.6c-2.4,0-4.1-2-4.1-4.7c0-3.3,2.1-5.1,4.4-5.1c1.7,0,2.6,0.9,3,1.7l0,0
		l0.1-1.5h1.6C48,70.6,48,71.4,48,72.5V78.1z M46.3,73.7c0-0.3,0-0.6-0.1-0.8c-0.3-1-1.2-1.9-2.5-1.9c-1.7,0-2.9,1.4-2.9,3.7
		c0,1.9,1,3.5,2.9,3.5c1.1,0,2.1-0.7,2.4-1.8c0.1-0.3,0.1-0.6,0.1-0.9L46.3,73.7L46.3,73.7z"/>
	<path class="st0" d="M51.9,75c0,2.4,1.5,3.4,3.3,3.4c1.3,0,2-0.2,2.7-0.5l0.3,1.3c-0.6,0.3-1.7,0.6-3.2,0.6c-3,0-4.8-2-4.8-4.9
		s1.7-5.2,4.5-5.2c3.2,0,4,2.8,4,4.5c0,0.4,0,0.6-0.1,0.8C58.6,75,51.9,75,51.9,75z M57.1,73.8c0-1.1-0.5-2.8-2.4-2.8
		c-1.8,0-2.6,1.6-2.7,2.8H57.1z"/>
	<path class="st0" d="M63.1,67.6v2.3h2.5v1.3h-2.5v5.2c0,1.2,0.3,1.9,1.3,1.9c0.5,0,0.8,0,1-0.1l0.1,1.3c-0.3,0.1-0.9,0.2-1.6,0.2
		c-0.8,0-1.5-0.3-1.9-0.7c-0.5-0.5-0.7-1.4-0.7-2.5v-5.3h-1.5v-1.3h1.5v-1.8L63.1,67.6z"/>
	<path class="st0" d="M80.3,79.8c-0.4-0.4-0.7-0.8-1.3-1.3c-1.2,1.1-2.4,1.5-3.9,1.5c-2.6,0-4.1-1.8-4.1-3.8c0-1.8,1.1-3.1,2.6-3.9
		v-0.1c-0.7-0.9-1.1-1.9-1.1-2.8c0-1.7,1.2-3.3,3.4-3.3c1.7,0,3,1.1,3,2.9c0,1.4-0.8,2.5-3,3.6v0.1c1.1,1.3,2.4,2.8,3.3,3.7
		c0.6-0.9,1-2.2,1.3-3.9h1.6c-0.4,2.1-0.9,3.8-1.9,5c0.7,0.8,1.4,1.5,2.2,2.4L80.3,79.8L80.3,79.8z M78.2,77.5
		c-0.8-0.9-2.3-2.5-3.8-4.3c-0.7,0.5-1.7,1.3-1.7,2.8s1.1,2.7,2.8,2.7C76.6,78.7,77.6,78.2,78.2,77.5z M74.1,69.2c0,1,0.5,1.7,1,2.4
		c1.4-0.8,2.2-1.5,2.2-2.7c0-0.8-0.5-1.7-1.6-1.7C74.7,67.3,74.1,68.2,74.1,69.2z"/>
	<path class="st0" d="M98.5,79c-0.8,0.3-2.3,0.7-4.2,0.7c-2,0-3.7-0.5-5-1.8c-1.2-1.1-1.9-2.9-1.9-5c0-4,2.8-7,7.3-7
		c1.6,0,2.8,0.3,3.4,0.6L97.7,68c-0.7-0.3-1.6-0.6-3-0.6c-3.3,0-5.4,2-5.4,5.4s2,5.4,5.2,5.4c1.1,0,1.9-0.2,2.3-0.4v-4h-2.7v-1.4
		h4.4V79z"/>
	<path class="st0" d="M102.2,75c0,2.4,1.5,3.4,3.3,3.4c1.3,0,2-0.2,2.7-0.5l0.3,1.3c-0.6,0.3-1.7,0.6-3.2,0.6c-3,0-4.8-2-4.8-4.9
		s1.7-5.2,4.5-5.2c3.2,0,4,2.8,4,4.5c0,0.4,0,0.6-0.1,0.8C108.9,75,102.2,75,102.2,75z M107.4,73.8c0-1.1-0.5-2.8-2.5-2.8
		c-1.8,0-2.6,1.6-2.7,2.8H107.4z"/>
	<path class="st0" d="M118.1,77.2c0,0.8,0,1.7,0.1,2.3h-1.6l-0.1-1.2h-0.1c-0.5,0.8-1.6,1.4-3,1.4c-2,0-3-1.4-3-2.8
		c0-2.3,2.1-3.6,5.8-3.6v-0.2c0-0.8-0.2-2.2-2.2-2.2c-0.9,0-1.9,0.3-2.5,0.7l-0.4-1.2c0.8-0.5,2-0.8,3.2-0.8c3,0,3.7,2,3.7,3.9
		L118.1,77.2L118.1,77.2z M116.4,74.6c-1.9,0-4.1,0.3-4.1,2.2c0,1.2,0.8,1.7,1.6,1.7c1.3,0,2.1-0.8,2.4-1.6c0.1-0.2,0.1-0.4,0.1-0.6
		V74.6z"/>
	<path class="st0" d="M120.9,72.9c0-1.1,0-2.1-0.1-3h1.5l0.1,1.9h0.1c0.4-1.3,1.5-2.1,2.7-2.1c0.2,0,0.3,0,0.5,0v1.7
		c-0.2,0-0.4,0-0.6,0c-1.2,0-2.1,0.9-2.4,2.2c0,0.2-0.1,0.5-0.1,0.8v5.2h-1.8v-6.7H120.9z"/>
</g>
<path class="st1" d="M82.7,53.4c1.8-2.2,3.1-4.6,4-7.2c0.3-0.8,0.6-1.7,0.8-2.5h15.7l-0.4-2.4c0,0,1.9-4.3-2.3-5.2l0.2-0.5
	c-0.4,0.4-8.2,0.1-12,0.3c-0.1,0-0.3,0-0.4,0c-0.1-1.9-0.4-3.8-1-5.8c-0.4-1.5-1-2.9-1.7-4.5s-1.6-3.3-2.8-5l0,0
	c-0.1-0.2-0.3-0.4-0.4-0.7l-4.8,4.8c0.7,0.8,1.2,1.6,1.7,2.4c1.5,2.8,2.3,5.8,2.5,8.7c-5,0-10.1-0.1-14.4-0.1c0.5-1.5,1-3,1.3-4.6
	c0.5-2.3,0.5-4.2,0.1-5.8l0,0l0,0c-0.5-1.8-1.4-3.3-2.7-4.5c-3.9-3.9-9.8-2.9-14.3,1.6c-2.9,3-4.3,6.1-4.4,9
	c-0.8,8.1,7.1,10.9,11.8,11.8c-1.9,5.7-1.9,11.2,2,15.1c4.5,4.5,12.4,4.4,19.4-2.6c0.2-0.2,0.4-0.4,0.6-0.6l0,0
	C81.7,54.7,82.2,54.2,82.7,53.4z M55,26.4L55,26.4c1.1-1.1,2.2-1.7,3.4-1.7c1.1,0,2.1,0.5,3,1.3c1.7,1.7,1.7,4.4-0.1,9.8
	c-3-0.2-4.9-0.8-6.4-2.3C53.3,31.9,52.4,29,55,26.4z M64.3,48.9c0-0.1,0-0.1,0-0.2c0-0.1,0-0.2,0-0.3c-0.2-1.5,0.1-3,0.5-4.6h16.7
	c-0.4,1.9-0.9,3.5-1.5,4.5s-1.3,1.9-2.2,2.8l0,0c-2.1,2.1-4.5,3.2-6.9,3.2c-1.8,0-3.4-0.7-4.7-1.9C65.1,51.5,64.5,50.3,64.3,48.9z"
	/>
<path class="st0" d="M126.1,30.8h-12.9v-4.5c0-2.8-0.1-4.6-0.4-5.3c-0.2-0.7-0.8-1.1-1.7-1.1c-0.8,0-1.3,0.3-1.6,0.9
	c-0.3,0.6-0.4,2.2-0.4,4.7v23.7c0,2.2,0.1,3.7,0.4,4.4s0.9,1.1,1.7,1.1c0.9,0,1.6-0.4,1.9-1.2s0.5-2.3,0.5-4.6V43H111v-7.5h15.1V62
	H118l-1.2-3.5c-0.9,1.5-2,2.7-3.3,3.4c-1.3,0.8-2.9,1.1-4.7,1.1c-2.2,0-4.2-0.5-6.1-1.6c-1.9-1-3.3-2.3-4.3-3.9
	c-1-1.5-1.6-3.2-1.8-4.9c-0.2-1.7-0.4-4.2-0.4-7.6V30.4c0-4.7,0.3-8.2,0.8-10.3s2-4.1,4.4-5.9s5.5-2.7,9.4-2.7
	c3.8,0,6.9,0.8,9.4,2.3s4.1,3.4,4.8,5.5c0.8,2.1,1.1,5.2,1.1,9.3C126.1,28.6,126.1,30.8,126.1,30.8z"/>
</svg>
