<?xml version="1.0" encoding="utf-8"?>
<!-- Generator: Adobe Illustrator 22.0.1, SVG Export Plug-In . SVG Version: 6.00 Build 0)  -->
<svg version="1.1" id="Layer_1" xmlns="http://www.w3.org/2000/svg" xmlns:xlink="http://www.w3.org/1999/xlink" x="0px" y="0px"
	 viewBox="0 0 88 60" style="enable-background:new 0 0 88 60;" xml:space="preserve">
<style type="text/css">
	.st0{fill:#FFFFFF;}
	.st1{fill:#F26E21;}
</style>
<g>
	<path class="st0" d="M22,21.7h-9.1v-3.2c0-2-0.1-3.3-0.3-3.8C12.4,14.2,12,14,11.4,14c-0.6,0-0.9,0.2-1.1,0.7
		C10,15,9.9,16.2,9.9,17.9v16.8c0,1.6,0.1,2.6,0.3,3.1c0.2,0.5,0.6,0.7,1.2,0.7c0.7,0,1.1-0.3,1.4-0.8c0.2-0.6,0.4-1.7,0.4-3.3v-4.2
		h-1.8V25H22v18.8h-5.7l-0.8-2.5c-0.6,1.1-1.4,1.9-2.4,2.4c-0.9,0.5-2.1,0.8-3.3,0.8c-1.5,0-3-0.4-4.3-1.1c-1.3-0.7-2.4-1.7-3-2.8
		c-0.7-1.1-1.1-2.3-1.3-3.5c-0.2-1.2-0.3-3-0.3-5.4V21.4c0-3.4,0.2-5.8,0.5-7.3c0.4-1.5,1.4-2.9,3.1-4.2C6.2,8.7,8.4,8,11.1,8
		c2.7,0,4.9,0.5,6.7,1.6c1.8,1.1,2.9,2.4,3.4,3.9c0.5,1.5,0.8,3.7,0.8,6.6V21.7z"/>
	
		<rect x="29.5" y="7.9" transform="matrix(0.7071 -0.7071 0.7071 0.7071 -4.4587 40.3305)" class="st1" width="33.8" height="35.4"/>
	<g>
		<path class="st0" d="M8.8,55.9c-0.6,0.2-1.7,0.5-3,0.5c-1.4,0-2.6-0.4-3.6-1.3C1.5,54.4,1,53.1,1,51.6c0-2.9,2-4.9,5.2-4.9
			c1.1,0,2,0.2,2.4,0.4l-0.3,1c-0.5-0.2-1.2-0.4-2.1-0.4c-2.3,0-3.8,1.4-3.8,3.9c0,2.4,1.4,3.9,3.7,3.9c0.8,0,1.4-0.1,1.6-0.3v-2.9
			H5.7v-1h3.2V55.9z"/>
		<path class="st0" d="M15.6,54.7c0,0.6,0,1.2,0.1,1.6h-1.1l-0.1-0.9h0c-0.4,0.5-1.1,1-2.1,1c-1.4,0-2.1-1-2.1-2
			c0-1.7,1.5-2.6,4.1-2.6v-0.1c0-0.6-0.2-1.6-1.6-1.6c-0.6,0-1.3,0.2-1.8,0.5l-0.3-0.8c0.6-0.4,1.4-0.6,2.3-0.6
			c2.1,0,2.6,1.4,2.6,2.8V54.7z M14.4,52.8c-1.4,0-2.9,0.2-2.9,1.5c0,0.8,0.5,1.2,1.2,1.2c0.9,0,1.5-0.6,1.7-1.2
			c0-0.1,0.1-0.3,0.1-0.4V52.8z"/>
		<path class="st0" d="M23.6,46.2v8.3c0,0.6,0,1.3,0.1,1.8h-1.1l-0.1-1.2h0c-0.4,0.8-1.2,1.3-2.3,1.3c-1.7,0-3-1.4-3-3.5
			c0-2.3,1.4-3.7,3.1-3.7c1.1,0,1.8,0.5,2.1,1h0v-4.1H23.6z M22.3,52.2c0-0.2,0-0.4-0.1-0.5c-0.2-0.8-0.9-1.4-1.8-1.4
			c-1.3,0-2.1,1.1-2.1,2.6c0,1.4,0.7,2.5,2,2.5c0.8,0,1.6-0.6,1.8-1.5c0-0.2,0.1-0.3,0.1-0.5V52.2z"/>
		<path class="st0" d="M31.5,55.3c0,1.6-0.3,2.5-1,3.2c-0.7,0.6-1.6,0.8-2.5,0.8c-0.8,0-1.7-0.2-2.3-0.6l0.3-1
			c0.5,0.3,1.2,0.6,2,0.6c1.3,0,2.2-0.7,2.2-2.4v-0.8h0c-0.4,0.6-1.1,1.2-2.2,1.2c-1.7,0-2.9-1.4-2.9-3.4c0-2.3,1.5-3.6,3.1-3.6
			c1.2,0,1.8,0.6,2.1,1.2h0l0-1h1.1c0,0.5-0.1,1.1-0.1,1.9V55.3z M30.3,52.2c0-0.2,0-0.4-0.1-0.6c-0.2-0.7-0.8-1.3-1.7-1.3
			c-1.2,0-2,1-2,2.6c0,1.3,0.7,2.5,2,2.5c0.8,0,1.5-0.5,1.7-1.3c0.1-0.2,0.1-0.5,0.1-0.7V52.2z"/>
		<path class="st0" d="M34.3,53.1c0,1.7,1.1,2.4,2.4,2.4c0.9,0,1.4-0.2,1.9-0.4l0.2,0.9c-0.4,0.2-1.2,0.4-2.3,0.4
			c-2.1,0-3.4-1.4-3.4-3.5c0-2.1,1.2-3.7,3.2-3.7c2.3,0,2.8,2,2.8,3.2c0,0.3,0,0.4,0,0.6H34.3z M38,52.2c0-0.8-0.3-2-1.7-2
			c-1.3,0-1.8,1.1-1.9,2H38z"/>
		<path class="st0" d="M42.2,47.8v1.6H44v1h-1.8v3.7c0,0.9,0.2,1.3,0.9,1.3c0.3,0,0.5,0,0.7-0.1l0.1,1c-0.2,0.1-0.6,0.2-1.1,0.2
			c-0.6,0-1.1-0.2-1.3-0.5c-0.3-0.4-0.5-1-0.5-1.8v-3.8h-1.1v-1H41v-1.3L42.2,47.8z"/>
		<path class="st0" d="M54.5,56.5c-0.3-0.3-0.5-0.6-0.9-0.9c-0.8,0.8-1.7,1.1-2.8,1.1c-1.9,0-2.9-1.2-2.9-2.7c0-1.3,0.8-2.2,1.9-2.8
			v0c-0.5-0.6-0.8-1.3-0.8-2c0-1.2,0.8-2.4,2.4-2.4c1.2,0,2.1,0.8,2.1,2c0,1-0.6,1.8-2.1,2.6v0.1c0.8,0.9,1.7,2,2.3,2.7
			c0.4-0.7,0.7-1.6,0.9-2.8h1.1c-0.3,1.5-0.7,2.7-1.4,3.5c0.5,0.6,1,1.1,1.6,1.7H54.5z M53,54.8c-0.6-0.6-1.6-1.8-2.7-3
			c-0.5,0.3-1.2,0.9-1.2,2c0,1.1,0.8,1.9,2,1.9C51.8,55.7,52.5,55.3,53,54.8z M50.1,49c0,0.7,0.3,1.2,0.7,1.7c1-0.6,1.6-1.1,1.6-1.9
			c0-0.6-0.3-1.2-1.1-1.2C50.5,47.6,50.1,48.2,50.1,49z"/>
		<path class="st0" d="M67.4,55.9c-0.6,0.2-1.7,0.5-3,0.5c-1.5,0-2.6-0.4-3.6-1.3c-0.8-0.8-1.3-2.1-1.3-3.6c0-2.9,2-4.9,5.2-4.9
			c1.1,0,2,0.2,2.4,0.4l-0.3,1c-0.5-0.2-1.1-0.4-2.1-0.4c-2.3,0-3.8,1.4-3.8,3.9c0,2.4,1.4,3.9,3.7,3.9c0.8,0,1.4-0.1,1.6-0.3v-2.9
			h-1.9v-1h3.2V55.9z"/>
		<path class="st0" d="M70,53.1c0,1.7,1.1,2.4,2.4,2.4c0.9,0,1.4-0.2,1.9-0.4l0.2,0.9c-0.4,0.2-1.2,0.4-2.3,0.4
			c-2.1,0-3.4-1.4-3.4-3.5c0-2.1,1.2-3.7,3.2-3.7c2.3,0,2.8,2,2.8,3.2c0,0.3,0,0.4,0,0.6H70z M73.7,52.2c0-0.8-0.3-2-1.7-2
			c-1.3,0-1.8,1.1-1.9,2H73.7z"/>
		<path class="st0" d="M81.3,54.7c0,0.6,0,1.2,0.1,1.6h-1.1l-0.1-0.9h0c-0.4,0.5-1.1,1-2.1,1c-1.4,0-2.1-1-2.1-2
			c0-1.7,1.5-2.6,4.1-2.6v-0.1c0-0.6-0.2-1.6-1.6-1.6c-0.6,0-1.3,0.2-1.8,0.5l-0.3-0.8c0.6-0.4,1.4-0.6,2.3-0.6
			c2.1,0,2.6,1.4,2.6,2.8V54.7z M80.1,52.8c-1.4,0-2.9,0.2-2.9,1.5c0,0.8,0.5,1.2,1.2,1.2c0.9,0,1.5-0.6,1.7-1.2
			c0-0.1,0.1-0.3,0.1-0.4V52.8z"/>
		<path class="st0" d="M83.3,51.6c0-0.8,0-1.5-0.1-2.1h1.1l0.1,1.4h0c0.3-0.9,1.1-1.5,1.9-1.5c0.1,0,0.2,0,0.3,0v1.2
			c-0.1,0-0.3,0-0.4,0c-0.9,0-1.5,0.7-1.7,1.6c0,0.2,0,0.4,0,0.6v3.7h-1.3V51.6z"/>
	</g>
	<path class="st0" d="M56.2,37.8c1.3-1.6,2.2-3.2,2.8-5.1c0.2-0.6,0.4-1.2,0.6-1.8h11.2l-0.3-1.7c0,0,1.3-3.1-1.6-3.7l0.1-0.3
		c-0.3,0.3-5.8,0.1-8.6,0.2c-0.1,0-0.2,0-0.3,0c-0.1-1.3-0.3-2.7-0.7-4.1c-0.3-1-0.7-2.1-1.2-3.2c-0.5-1.1-1.2-2.3-2-3.5v0
		c-0.1-0.2-0.2-0.3-0.3-0.5l-3.4,3.4c0.5,0.6,0.9,1.2,1.2,1.7c1.1,2,1.6,4.1,1.8,6.2c-3.5,0-7.2,0-10.2,0c0.4-1.1,0.7-2.2,0.9-3.3
		c0.3-1.6,0.3-3,0-4.1c0,0,0,0,0,0l0,0c-0.3-1.3-1-2.3-1.9-3.2c-2.7-2.8-7-2.1-10.1,1.1c-2.1,2.1-3,4.4-3.2,6.4
		c-0.6,5.8,5,7.7,8.4,8.4c-1.4,4.1-1.3,7.9,1.4,10.7c3.2,3.2,8.8,3.1,13.8-1.9c0.1-0.1,0.3-0.3,0.4-0.4c0,0,0,0,0,0
		C55.4,38.7,55.8,38.3,56.2,37.8z M36.5,18.6L36.5,18.6c0.8-0.8,1.6-1.2,2.4-1.2c0.8,0,1.5,0.3,2.1,0.9c1.2,1.2,1.2,3.1-0.1,6.9
		c-2.2-0.1-3.5-0.6-4.5-1.6C35.3,22.5,34.7,20.4,36.5,18.6z M43.1,34.5c0,0,0-0.1,0-0.1c0-0.1,0-0.2,0-0.2c-0.1-1.1,0-2.2,0.3-3.3
		h11.9c-0.3,1.4-0.7,2.5-1.1,3.2c-0.4,0.7-1,1.4-1.6,2l0,0c-1.5,1.5-3.2,2.3-4.9,2.3c-1.3,0-2.4-0.5-3.3-1.4
		C43.7,36.4,43.3,35.5,43.1,34.5z"/>
	<path class="st0" d="M87,21.7h-9.1v-3.2c0-2-0.1-3.3-0.3-3.8C77.4,14.2,77,14,76.4,14c-0.6,0-0.9,0.2-1.1,0.6
		c-0.2,0.4-0.3,1.5-0.3,3.3v16.8c0,1.6,0.1,2.6,0.3,3.1c0.2,0.5,0.6,0.7,1.2,0.7c0.7,0,1.1-0.3,1.4-0.8c0.2-0.6,0.4-1.7,0.4-3.3
		v-4.2h-1.8V25H87v18.8h-5.7l-0.8-2.5c-0.6,1.1-1.4,1.9-2.4,2.4c-0.9,0.5-2.1,0.8-3.4,0.8c-1.5,0-3-0.4-4.3-1.1
		c-1.3-0.7-2.3-1.7-3-2.8c-0.7-1.1-1.1-2.2-1.3-3.5c-0.2-1.2-0.3-3-0.3-5.4V21.4c0-3.3,0.2-5.8,0.5-7.3c0.4-1.5,1.4-2.9,3.1-4.2
		C71.2,8.7,73.4,8,76.1,8c2.7,0,4.9,0.5,6.7,1.6c1.8,1.1,2.9,2.4,3.4,3.9c0.5,1.5,0.8,3.7,0.8,6.6V21.7z"/>
</g>
</svg>
